<svg width="518.000000" height="207.000000" viewBox="0 0 518 207" fill="none" xmlns="http://www.w3.org/2000/svg" xmlns:xlink="http://www.w3.org/1999/xlink">
	<desc>
			Created with Pixso.
	</desc>
	<defs/>
	<path d="M381.83 64.51C385.17 64.54 388.2 64.3 388.56 63.98C389.96 62.73 388.77 61.7 386.57 62.28C385.3 62.62 382.78 62.85 380.98 62.8C379.19 62.75 377.27 63.11 376.73 63.59C376.13 64.13 378.09 64.48 381.83 64.51Z" fill="#FFCD00" fill-opacity="1.000000" fill-rule="evenodd"/>
	<path d="M246.44 85.15C246.53 85.62 248.13 85.74 250.02 85.41C251.9 85.07 253.38 84.42 253.3 83.94C253.21 83.47 251.6 83.36 249.72 83.69C247.83 84.02 246.36 84.68 246.44 85.15Z" fill="#FFCD00" fill-opacity="1.000000" fill-rule="evenodd"/>
	<path d="M333.58 80.07C332.93 81.01 334.11 82.06 335.54 81.81C336.22 81.69 336.67 81.01 336.55 80.3C336.32 79.01 334.43 78.86 333.58 80.07Z" fill="#FFCD00" fill-opacity="1.000000" fill-rule="evenodd"/>
	<path d="M423.63 56.15C428.57 54.7 430.75 53.33 429.12 52.69C428.68 52.52 425.29 52.63 421.58 52.93C414.51 53.51 413.6 54.19 416.84 56.47C418.22 57.44 419.45 57.38 423.63 56.15Z" fill="#FFCD00" fill-opacity="1.000000" fill-rule="evenodd"/>
	<path d="M326.62 81.61C327 82.03 327.83 82.28 328.49 82.17C329.13 82.05 329.84 81.53 330.05 81.01C330.26 80.47 329.46 80.23 328.18 80.45C326.9 80.68 326.23 81.18 326.62 81.61Z" fill="#FFCD00" fill-opacity="1.000000" fill-rule="evenodd"/>
	<path d="M266.91 79.66C266.2 80.24 264.52 80.55 263 80.39C260.89 80.17 259.85 80.59 258.12 82.35C254.75 85.77 256.78 86.1 265.64 83.56C270.01 82.3 274.52 81.11 275.67 80.9C277.17 80.62 277.46 80.3 276.68 79.75C274.99 78.56 268.33 78.5 266.91 79.66Z" fill="#FFCD00" fill-opacity="1.000000" fill-rule="evenodd"/>
	<path d="M362.07 64.76C362.15 65.24 363.18 65.45 364.36 65.24C365.53 65.04 366.43 64.48 366.35 64.01C366.26 63.54 365.23 63.32 364.06 63.53C362.88 63.74 361.98 64.29 362.07 64.76Z" fill="#FFCD00" fill-opacity="1.000000" fill-rule="evenodd"/>
	<path d="M409.28 63.77C412.71 63.44 417.05 63.3 418.94 63.45C426.1 64.03 435.86 64.19 439.83 63.78C442.11 63.56 444.51 63.66 445.17 64.01C445.84 64.35 447.1 64.76 447.97 64.91C448.85 65.05 449.68 65.81 449.81 66.58C449.99 67.61 450.43 67.73 451.44 67.03C454.07 65.21 458.14 65.18 464.3 66.91C467.7 67.88 470.56 69.03 470.64 69.49C470.72 69.95 471.36 70.22 472.07 70.1C472.77 69.97 473.25 69.29 473.13 68.58C472.84 66.96 473.77 66.79 476.17 68.02C477.23 68.56 477.59 69.08 476.99 69.2C476.4 69.32 476.03 70.04 476.16 70.79C476.36 71.91 475.81 72.17 473.38 72.15C468.9 72.09 469.03 73.73 473.7 76C478.12 78.14 481.56 77.86 480.69 75.42C479.93 73.26 482.9 73.09 486.28 75.1C489.74 77.15 491.39 77.01 490.99 74.71C490.82 73.76 490.3 73.06 489.83 73.15C489.36 73.23 488.9 72.91 488.82 72.43C488.67 71.58 488.94 71.62 494.43 73.33C495.55 73.67 497.65 74.08 499.1 74.23C501.29 74.46 501.75 74.23 501.87 72.81C501.99 71.36 502.33 71.2 504.29 71.71C506.12 72.18 506.7 72.02 507.15 70.92C507.96 68.95 507.39 66.53 506.05 66.27C505.42 66.14 504.59 64.65 504.2 62.95C503.24 58.8 501.17 57.33 499 59.29C497.7 60.45 497.15 60.56 496.12 59.83C495.09 59.11 495.04 58.76 495.89 58.01C497.09 56.94 495.98 55.28 494.26 55.58C493.62 55.7 493.03 56.24 492.95 56.78C492.78 57.94 483.82 56.98 481.39 55.54C480.56 55.06 479.06 55.04 478.06 55.49C476.67 56.13 476.3 56 476.5 54.96C476.82 53.31 471.78 52.9 466.8 54.16C465.03 54.61 463.06 54.69 462.41 54.35C461.77 54.01 459.22 53.57 456.76 53.37C454.29 53.18 451.85 52.75 451.33 52.43C450.82 52.1 449.27 52.04 447.89 52.28C445.76 52.66 445.58 52.89 446.68 53.82C447.39 54.42 448.69 54.79 449.56 54.64C450.44 54.48 451.95 55.2 452.92 56.24C454.97 58.42 458.48 58.84 467.69 58C471.25 57.68 474.43 57.66 474.75 57.96C475.9 59.07 480.55 59.77 483.39 59.27C484.99 58.99 486.61 59.11 487 59.54C487.38 59.97 488.33 60.1 489.09 59.84C490.01 59.51 490.7 60.01 491.13 61.32C492.16 64.48 490.87 65.18 486.4 63.92C483.96 63.23 480.01 63.02 476.65 63.4C468.71 64.31 461.58 63.97 459.27 62.59C458.01 61.84 455.32 61.63 451.87 62C448.26 62.38 446.01 62.18 445.14 61.39C444.37 60.69 442.04 60.35 439.48 60.55C437.08 60.75 430.77 61 425.44 61.11C420.12 61.23 414.71 61.53 413.42 61.78C411.84 62.08 411 61.8 410.84 60.89C410.65 59.83 410.02 59.76 407.91 60.56C404.59 61.83 402.16 62.72 401.07 63.1C398.78 63.89 403.79 64.3 409.28 63.77Z" fill="#FFCD00" fill-opacity="1.000000" fill-rule="evenodd"/>
	<path d="M446.69 60.14C447.32 60.27 448.29 60.1 448.83 59.77C449.38 59.42 448.86 59.31 447.68 59.52C446.51 59.73 446.06 60.01 446.69 60.14Z" fill="#FFCD00" fill-opacity="1.000000" fill-rule="evenodd"/>
	<path d="M350.27 57.56C355.63 55.84 355.66 53.54 350.31 54.46C347.59 54.93 346.96 54.82 347.8 54C348.62 53.22 347.49 53.21 343.82 53.96C340.66 54.61 338.22 55.6 337.44 56.57C336.74 57.42 336.22 58.4 336.28 58.75C336.46 59.78 345.86 58.98 350.27 57.56Z" fill="#FFCD00" fill-opacity="1.000000" fill-rule="evenodd"/>
	<path d="M361.32 56.34C365.03 57.25 367.57 57.09 369.68 55.82C371.91 54.48 369.83 53.68 365.92 54.37C363.83 54.74 362.05 54.66 361.97 54.18C361.88 53.71 360.85 53.5 359.67 53.71C356.57 54.25 357.25 55.33 361.32 56.34Z" fill="#FFCD00" fill-opacity="1.000000" fill-rule="evenodd"/>
	<path d="M331.76 58.18C331.34 58.56 331.03 59.04 331.07 59.24C331.11 59.45 331.52 59.55 331.99 59.47C332.46 59.39 332.77 58.91 332.69 58.41C332.6 57.92 332.18 57.81 331.76 58.18Z" fill="#FFCD00" fill-opacity="1.000000" fill-rule="evenodd"/>
	<path d="M408.08 55.82C409.8 54.47 410.11 52.24 408.42 53.43C407.87 53.81 406.77 54.48 405.97 54.93C405.04 55.45 404.86 56 405.48 56.43C406.1 56.86 407.04 56.64 408.08 55.82Z" fill="#FFCD00" fill-opacity="1.000000" fill-rule="evenodd"/>
	<path d="M371.43 117.87C371.51 118.34 372.35 118.59 373.29 118.42C374.23 118.26 374.94 117.73 374.86 117.26C374.77 116.79 373.93 116.54 372.99 116.71C372.05 116.87 371.35 117.4 371.43 117.87Z" fill="#FFCD00" fill-opacity="1.000000" fill-rule="evenodd"/>
	<path d="M344.49 117.62C343.81 118.03 343.33 118.76 343.41 119.25C343.6 120.34 344.49 120.2 345.97 118.86C347.35 117.6 346.17 116.61 344.49 117.62Z" fill="#FFCD00" fill-opacity="1.000000" fill-rule="evenodd"/>
	<mask id="mask1_136" mask-type="alpha" maskUnits="userSpaceOnUse" x="-0.298401" y="-0.299377" width="515.594543" height="200.163422">
		<path d="M-0.3 87.1L495.41 -0.3L515.29 112.45L19.58 199.86L-0.3 87.1Z" fill="#FFCD00" fill-opacity="1.000000" fill-rule="evenodd"/>
	</mask>
	<g mask="url(#mask1_136)">
		<path d="M256.99 132.75C255.17 133.07 254.22 133.6 254.62 134.05C255 134.47 256.44 134.61 257.82 134.37C259.21 134.12 260.27 133.54 260.19 133.07C260.11 132.6 258.67 132.45 256.99 132.75Z" fill="#FFCD00" fill-opacity="1.000000" fill-rule="evenodd"/>
	</g>
	<g mask="url(#mask1_136)">
		<path d="M447.319 101.561C446.743 101.918 445.998 102.018 445.664 101.786C445.601 101.741 445.566 101.694 445.558 101.647C445.522 101.444 445.971 101.235 446.708 101.133C447.32 101.054 447.648 101.084 447.669 101.208C447.683 101.288 447.569 101.407 447.319 101.561ZM438.59 102.5C438.119 102.583 437.428 102.305 437.056 101.886C436.925 101.739 436.849 101.594 436.825 101.462C436.782 101.218 436.922 101.025 437.228 100.971C437.7 100.888 438.394 101.165 438.769 101.584C438.898 101.729 438.973 101.874 438.996 102.004C439.04 102.25 438.899 102.446 438.59 102.5ZM402.703 103.525C400.566 103.902 399.196 102.782 400.437 101.676C400.908 101.263 402.022 101.431 402.916 102.057C404.421 103.113 404.404 103.226 402.703 103.525ZM388.645 86.5141C387.11 86.8254 386.279 86.803 386.221 86.478C386.192 86.3127 386.363 86.0692 386.744 85.7515C387.059 85.4853 388.144 85.4406 389.154 85.6542C389.873 85.8049 390.256 85.9101 390.275 86.0178C390.298 86.15 389.772 86.2859 388.645 86.5141ZM381.409 88.0511C378.477 88.8414 374.168 88.9875 374.076 88.4678C374.058 88.364 374.208 88.2336 374.571 88.0765C376.454 87.2594 385.22 85.9056 385.309 86.4122L385.309 86.4128C385.364 86.7229 383.608 87.4584 381.409 88.0511ZM332.117 121.242C329.441 121.733 326.945 121.786 326.57 121.368C326.416 121.195 326.325 121.022 326.299 120.871C326.261 120.657 326.353 120.488 326.573 120.432C326.948 120.334 328.634 119.866 330.313 119.381C332.116 118.863 334.116 118.883 335.18 119.431C335.722 119.708 336.049 119.913 336.081 120.094C336.144 120.453 335.033 120.712 332.117 121.242ZM298.061 115.872C297.371 116.857 290.911 118.107 271.32 121.053C269.188 121.373 266.602 121.333 265.565 120.97C264.53 120.598 260.394 120.808 256.372 121.426C246.714 122.916 244.935 123.07 243.619 122.516C243.012 122.263 241.944 122.398 241.244 122.812C240.409 123.319 239.892 123.109 239.731 122.199C239.598 121.442 238.91 120.927 238.205 121.051C237.499 121.175 236.841 120.844 236.748 120.314C236.629 119.642 237.866 119.312 240.755 119.237C244.776 119.135 252.757 117.758 262.261 115.53C265.13 114.859 267.863 114.779 269.696 115.322C271.291 115.795 275.727 115.807 279.549 115.346C283.376 114.89 287.015 114.797 287.645 115.137C288.798 115.765 291.627 115.761 296.283 115.127C297.583 114.947 298.211 115.001 298.269 115.329C298.292 115.463 298.221 115.643 298.061 115.872ZM215.698 88.4644C214.109 90.1223 209.892 91.1456 208.961 90.0972C208.629 89.7242 205.584 89.864 202.195 90.411C198.805 90.9528 195.828 91.2538 195.578 91.0767C195.555 91.0603 195.541 91.0402 195.537 91.0168C195.452 90.5309 199.383 88.6179 200.682 88.5592C201.163 88.5357 205.059 88.1712 209.341 87.7492C214.384 87.2554 216.123 87.1609 216.21 87.6532C216.242 87.8378 216.043 88.1049 215.698 88.4644ZM153.84 99.6007C150.42 100.18 147.562 100.308 147.486 99.8765C147.41 99.4501 148.235 98.9423 149.318 98.7513C150.401 98.5604 151.597 97.9577 151.977 97.4191C152.99 95.972 167.364 92.4196 167.566 93.5671C167.849 95.172 160.264 98.5054 153.84 99.6007ZM144.325 96.9726C143.823 97.4293 143.6 97.7715 143.672 98.1833C143.736 98.5435 144.025 98.9569 144.552 99.5466C144.92 99.9581 145.166 100.302 145.221 100.613C145.418 101.732 143.141 102.418 135.234 104.267C131.382 105.165 128.208 105.749 128.174 105.56C128.07 104.968 133.107 101.844 137.153 99.9906C139.298 99.0049 141.198 97.8303 141.378 97.383C141.559 96.9274 142.551 96.4167 143.586 96.2422C144.45 96.0958 144.868 96.0792 144.898 96.2478C144.92 96.3754 144.721 96.609 144.325 96.9726ZM208.9 67.9591C209.43 67.8758 209.707 67.8724 209.728 67.9951C209.752 68.1312 209.462 68.4224 208.856 68.9316C208.083 69.5847 207.261 69.9829 207.024 69.8168C206.901 69.7303 206.833 69.6252 206.813 69.5093C206.715 68.954 207.701 68.1506 208.9 67.9591ZM212.616 66.3948C213.33 66.2689 213.594 65.5806 213.386 64.4011C213.36 64.2533 213.326 64.0977 213.285 63.9344C213.238 63.7446 213.199 63.5677 213.17 63.4019C212.918 61.9724 213.384 61.3755 215.166 60.5144C217.959 59.1761 219.666 59.2925 219.932 60.7997C219.97 61.0162 219.978 61.2614 219.956 61.5352C219.933 61.8101 219.938 62.0473 219.974 62.2495C220.1 62.9641 220.608 63.2425 221.627 63.2125C222.627 63.1854 223.662 63.5704 223.928 64.0671C223.967 64.1408 223.994 64.2148 224.007 64.289C224.205 65.4159 221.379 66.5905 216.183 67.5193C213.709 67.9662 211.621 67.9427 211.537 67.4697C211.454 66.9994 211.936 66.5146 212.616 66.3948ZM239.158 66.3542C240.434 66.1346 241.168 66.0913 241.189 66.2082C241.198 66.2638 241.047 66.3557 240.715 66.482C239.686 66.8739 238.142 67.1382 237.285 67.0681C237.066 67.0503 236.958 67.0162 236.95 66.9699C236.927 66.8348 237.753 66.5959 239.158 66.3542ZM249.826 65.5125L255.763 65.3796L251.419 66.9477C248.212 68.1021 246.685 68.286 245.587 67.6617C244.698 67.1557 244.203 66.7641 244.149 66.4618C244.04 65.8424 245.788 65.5977 249.826 65.5125ZM260.603 64.1875C262.94 63.7354 265.79 62.4575 267.379 61.1513C270.433 58.6569 273.016 57.8923 274.143 59.1566C274.591 59.6611 276 59.5672 277.687 58.934C279.517 58.2454 280.523 58.2317 280.631 58.846C280.691 59.1843 280.478 59.713 279.981 60.4242C279.712 60.8076 279.596 61.106 279.639 61.3475C279.684 61.602 279.905 61.7934 280.309 61.9545C280.969 62.2219 281.467 61.6438 281.56 60.5082C281.683 59.0022 282.379 58.5064 285.039 58.0375C287.175 57.6608 288.346 57.8409 288.454 58.4522C288.533 58.9044 288.031 59.5925 286.908 60.4658C285.947 61.2083 284.994 62.2104 284.787 62.6839C284.582 63.1678 282.904 63.8074 281.062 64.1107C279.221 64.414 274.144 65.2719 269.785 66.0139C265.423 66.7538 261.793 67.0261 261.721 66.6125C261.648 66.199 260.46 65.6571 259.084 65.412C258.107 65.2391 257.562 65.1222 257.539 64.9908C257.508 64.8108 258.453 64.6035 260.603 64.1875ZM290.527 57.6669C292.565 56.4415 297.765 55.6605 297.923 56.5573C297.997 56.976 296.763 57.7025 295.181 58.1785L295.187 58.1776C293.61 58.6501 291.598 58.9197 290.722 58.773C289.961 58.6501 289.578 58.5751 289.552 58.43C289.526 58.285 289.858 58.0699 290.527 57.6669ZM302.207 62.04C305.115 60.5786 306.18 60.4496 309.727 61.1351C312.697 61.7049 314.223 62.2162 314.31 62.7109C314.4 63.2194 312.97 63.7104 310.025 64.2296C307.224 64.7236 303.56 64.8128 301.878 64.4351L298.819 63.7407L302.207 62.04ZM510.772 109.51C511.997 110.443 513.584 111.298 514.3 111.417C514.826 111.508 515.172 111.753 515.22 112.029C515.238 112.13 515.217 112.235 515.15 112.338C514.66 113.096 508.116 112.481 502.305 111.123C498.279 110.189 494.159 110.169 489.109 111.076C487.009 111.457 485.028 111.193 483.748 110.356C482.633 109.636 480.305 109.084 478.58 109.138C473.804 109.284 467.861 109.088 463.853 108.649C458.806 108.102 453.625 107.99 443.587 108.22C438.816 108.334 434.501 108.258 433.998 108.061C433.495 107.854 431.257 107.844 429.022 108.027C426.784 108.211 421.745 108.194 417.82 107.985C408.915 107.52 400.434 107.523 395.135 107.988C392.896 108.191 390.3 108.113 389.366 107.822C388.433 107.531 381.453 108.373 373.856 109.702C364.613 111.313 359.325 111.877 357.888 111.406C354.825 110.406 346.011 111.416 346.233 112.676C346.239 112.713 346.254 112.75 346.276 112.787C346.33 112.878 346.365 112.967 346.381 113.054C346.478 113.609 345.787 114.084 344.351 114.441C342.957 114.79 341.123 115.615 340.279 116.283C339.499 116.892 339.172 117.302 339.275 117.884C339.345 118.283 339.617 118.762 340.084 119.44C340.822 120.515 341.738 121.339 342.12 121.272C344.082 120.926 371.254 120.017 382.39 119.927C389.425 119.867 400.33 119.735 406.625 119.635C415.792 119.485 420.803 119.67 420.875 120.08C420.916 120.311 419.381 120.613 416.131 120.967C412.558 121.363 407.645 121.672 405.215 121.658C394.738 121.616 388.897 121.74 382.337 122.132C378.495 122.362 372.385 122.669 368.771 122.816C365.155 122.966 359.226 123.225 355.596 123.386C351.967 123.554 348.397 123.589 347.663 123.476C346.933 123.357 340.636 123.647 333.677 124.12C326.714 124.591 318.448 125.028 315.303 125.1C312.157 125.164 303.866 125.446 296.868 125.72C289.873 125.992 281.806 126.164 278.937 126.097C275.805 126.028 274.588 125.909 274.508 125.457C274.473 125.26 274.655 124.999 274.989 124.651C275.529 124.088 275.807 123.758 275.769 123.542C275.725 123.292 275.257 123.196 274.281 123.068C273.158 122.914 271.478 123.447 270.403 124.287C268.816 125.537 268.349 125.609 267.555 124.715C266.801 123.87 266.198 123.925 264.637 125.005C262.686 126.346 259.266 126.688 244.553 127.012C233.586 127.259 231.172 127.442 223.642 128.626C218.074 129.502 216.157 130.054 216.286 130.787C216.291 130.816 216.299 130.846 216.311 130.875C216.335 130.936 216.352 130.998 216.363 131.058C216.451 131.557 216.096 132.016 215.502 132.121C214.835 132.239 214.029 131.882 213.713 131.333C213.249 130.53 212.807 130.608 211.511 131.721C208.832 134.011 205.086 134.208 202.814 132.178C201.697 131.176 200.619 130.591 200.418 130.877C200.218 131.163 197.471 132.22 194.315 133.229C191.156 134.234 187.161 135.562 185.441 136.172C183.633 136.813 181.78 136.977 181.049 136.562C179.745 135.82 176.421 136.899 174.932 138.547C174.468 139.061 168.534 140.906 161.751 142.651C150.505 145.538 149.247 145.714 147.547 144.644C145.801 143.551 144.755 143.727 131.461 147.355C123.641 149.491 114.419 152.138 110.97 153.236C107.521 154.335 101.451 155.957 97.4758 156.836C93.0436 157.815 89.3517 159.137 87.9237 160.258C86.6427 161.259 85.1674 162.156 84.6406 162.252C84.1186 162.344 82.9263 163.471 81.99 164.75C78.9237 168.941 76.1607 170.862 71.2574 172.206C68.5962 172.936 65.3267 174.086 63.987 174.77C60.1011 176.761 55.3815 177.998 54.6803 177.21C54.3224 176.812 53.1412 176.642 52.048 176.835C49.9921 177.197 48.2534 176.152 47.9792 174.597C47.9263 174.297 47.9279 173.978 47.9922 173.646C48.0266 173.468 48.0256 173.287 47.9937 173.107C47.7301 171.611 45.3481 170.144 43.3582 170.442C42.6465 170.546 40.8905 169.217 39.447 167.484L36.8327 164.339L38.2827 162.12C39.0811 160.905 39.6531 159.464 39.5578 158.924C39.3122 157.531 36.2025 156.669 33.2666 157.187C31.8969 157.429 30.0619 157.057 29.1929 156.36C27.1202 154.7 23.0473 145.415 22.1451 140.298C21.5982 137.196 21.0652 136.214 19.8544 136.057C16.6558 135.659 15.4509 134.931 14.8195 133.028C14.4621 131.953 13.0641 130.054 11.7144 128.808C10.3648 127.562 8.80844 125.52 8.25664 124.28C7.69875 123.035 6.86674 121.868 6.40205 121.681C5.84381 121.46 5.49677 120.883 5.38652 120.258C5.24954 119.481 5.47823 118.629 6.12175 118.293C8.06485 117.268 13.4487 116.004 13.5439 116.544C13.6701 117.26 18.4128 118.481 18.8199 117.903C18.8421 117.871 18.8497 117.837 18.8436 117.803C18.8033 117.574 18.1547 117.323 17.2544 117.201C16.2254 117.063 15.2771 116.369 15.1522 115.661C15.0278 114.956 14.2473 113.9 13.4165 113.313C12.4526 112.638 11.9132 111.942 11.7981 111.289C11.6504 110.452 12.2015 109.685 13.451 109.126C14.5204 108.647 15.86 107.177 16.4292 105.856C17.6936 102.902 19.2828 102.545 21.9989 104.589L24.0763 106.155L23.6703 103.852C23.2201 101.299 24.5076 100.667 27.3263 102.054C29.5083 103.124 33.7887 101.149 33.4492 99.2233C33.3229 98.5074 34.119 97.8687 35.4293 97.6377C36.59 97.433 37.1737 97.5255 37.2471 97.942C37.2703 98.0736 37.2426 98.2375 37.166 98.4346C37.07 98.6868 37.0284 98.8524 37.0424 98.9313C37.0731 99.1054 37.3735 98.858 37.9541 98.1891C38.6392 97.4048 39.2527 97.0754 39.3206 97.4605C39.3889 97.8482 39.8239 97.6249 40.2926 96.9587C40.7563 96.2933 42.1534 95.5727 43.3939 95.3539C44.6344 95.1352 47.8027 93.8197 50.4324 92.442C56.051 89.4874 61.2864 87.3518 63.132 87.2555C63.8527 87.2164 67.5727 85.9929 71.4028 84.5314C78.0513 81.9921 78.4247 81.9342 79.7844 83.2374C80.5994 84.021 81.1278 84.1464 81.0193 83.5313C80.915 82.9394 81.5166 82.407 82.3561 82.3469C85.1711 82.141 85.9886 81.6691 85.7607 80.3769C85.5989 79.4594 86.4662 78.9228 88.7896 78.5131C90.578 78.1978 92.3589 77.492 92.7416 76.9422C93.1312 76.3859 97.3952 75.0585 102.223 73.9833C108.061 72.6795 111.401 71.5337 112.182 70.5699C112.884 69.7025 116.418 68.328 120.963 67.1588C125.143 66.0807 130.459 64.6743 132.772 64.0266C138.496 62.4391 157.973 59.1007 164.919 58.5208C172.202 57.9107 174.011 57.9718 174.24 59.2719C174.272 59.4522 174.273 59.6564 174.255 59.8859C174.234 60.1376 174.246 60.371 174.283 60.5838C174.569 62.2066 176.365 62.6343 176.975 60.8824C177.774 58.5965 179.939 58.5745 180.34 60.8487C180.679 62.7715 180.832 62.774 190.74 60.9655C196.268 59.9615 202.219 58.5444 203.96 57.8218C206.132 56.9191 207.371 56.7806 207.899 57.3724C208.42 57.9573 209.473 57.8516 211.136 57.0361C212.795 56.2267 214.525 56.0495 216.437 56.4824C217.999 56.8332 219.456 56.8722 219.673 56.5621C219.887 56.2524 220.737 56.3851 221.551 56.8439C222.366 57.3104 223.568 57.3729 224.218 56.9811C225.333 56.3094 226.039 56.6143 226.171 57.3659C226.285 58.0141 225.974 58.9944 225.131 59.9672L223.374 61.9877L228.221 60.6854C232.058 59.6545 233.115 59.6385 233.287 60.6103C233.431 61.4269 234.572 61.6894 236.737 61.3955C238.516 61.1592 241.068 60.8212 242.409 60.6459C243.75 60.4707 244.983 59.9949 245.145 59.5852C245.714 58.1578 247.715 58.4553 248.461 60.0744C249.37 62.0565 253.333 61.5871 255.51 59.2472C257.188 57.4431 261.747 56.5033 269.197 56.4235C272.104 56.3932 279.139 55.7577 284.824 55.011C290.513 54.269 295.606 53.968 296.144 54.3447C296.681 54.7189 298.394 54.8034 299.947 54.5295C301.503 54.2552 302.85 54.46 302.942 54.9794C303.044 55.5609 303.89 55.5823 305.112 55.0337C306.523 54.4039 307.433 54.5313 308.193 55.4578C309.077 56.5411 309.608 56.546 311.179 55.4669C313.011 54.2058 320.198 52.936 321.828 53.5812C322.263 53.7497 324.595 53.8314 327.013 53.7569C331.52 53.621 334.251 54.1489 334.428 55.1551C334.45 55.276 334.434 55.4038 334.38 55.5382C334.188 56.0172 332.898 56.3831 331.515 56.3499C329.936 56.3138 328.298 56.9492 327.136 58.0413C325.456 59.6193 325 59.7052 322.418 58.9398C318.912 57.9004 315.418 59.7803 315.862 62.302C315.884 62.4273 315.916 62.5542 315.958 62.6824C316.47 64.239 317.118 64.3058 322.556 63.363C328.012 62.417 330.394 62.4447 339.395 63.5303C340.917 63.7123 343.174 63.6847 344.407 63.4673C346.114 63.1663 347.791 63.7935 347.933 64.6002C347.964 64.7753 347.922 64.9589 347.793 65.1432C346.071 67.6026 326.526 68.4695 326.102 66.1061C325.973 65.3747 325.338 65.4601 323.683 66.4446C321.987 67.4473 317.717 67.9442 306.158 68.4768C297.75 68.8616 290.505 69.0357 290.054 68.8648C289.606 68.696 286.277 69.1418 282.656 69.8549C279.036 70.5732 272.578 71.1709 268.303 71.1813C264.029 71.186 260.196 71.2518 259.787 71.3238C259.376 71.3962 258.933 70.8296 258.798 70.0646C258.604 68.9662 258.337 68.9308 257.527 69.8863C256.499 71.0988 239.188 73.8581 237.317 73.1167C236.847 72.9279 236.403 73.1741 236.327 73.6671C236.248 74.1579 235.244 74.4789 234.095 74.3857C233.147 74.3063 232.673 74.163 232.628 73.9085C232.601 73.756 232.728 73.5636 232.999 73.3212C233.398 72.9651 233.616 72.6804 233.577 72.4604C233.443 71.6974 230.224 71.7122 220.806 72.2228C210.349 72.7956 208.773 73.0468 208.264 74.2665C207.887 75.1537 207.394 75.3818 206.885 74.8934C205.138 73.2267 201.357 73.2247 195.621 74.8809C186.902 77.4017 172.166 79.7762 168.788 79.2073C166.711 78.854 165.609 79.0244 165.084 79.7697C164.614 80.4416 162.976 80.8211 160.63 80.8004C158.539 80.7799 156.627 81.165 156.256 81.6862C156.173 81.7998 156.142 81.9062 156.16 82.004C156.228 82.3901 157.048 82.642 158.431 82.6723C160.614 82.7232 161.908 83.1895 162.013 83.7893C162.077 84.1504 161.71 84.5598 160.848 84.9562C159.883 85.3992 159.515 85.8218 159.57 86.1309C159.669 86.6939 161.171 86.8804 163.027 86.1282C164.457 85.5483 165.969 84.7726 166.39 84.4106C166.809 84.049 168.538 83.4749 170.229 83.1342C172.301 82.713 173.043 82.7632 173.173 83.4982C173.198 83.6419 173.2 83.8118 173.184 84.0094C173.176 84.1096 173.18 84.2049 173.196 84.2954C173.474 85.8729 177.438 85.9827 186.315 84.6973C191.37 83.9604 192.951 83.4179 193.599 82.1978C194.347 80.8028 194.643 80.8199 196.525 82.38C198.505 84.0294 198.998 84.0252 205.795 82.3896C209.747 81.4396 213.014 80.8636 213.057 81.1091C213.101 81.3572 212.552 82.192 211.84 82.9706C211.46 83.3805 211.25 83.6612 211.279 83.8248C211.336 84.1495 212.333 84.0142 214.808 83.5157C217.149 83.039 221.736 82.4515 224.991 82.2052C229.711 81.8472 231.133 81.4473 231.988 80.22C233.281 78.3726 236.701 77.5819 236.932 78.8887C236.951 78.9947 236.948 79.1145 236.922 79.2487C236.49 81.4833 231.869 83.7612 226.118 84.5753C221.514 85.2305 219.65 85.7549 219.788 86.5331C219.835 86.8012 220.12 87.0994 220.612 87.4435C223.837 89.702 227.603 89.9734 236.451 88.5758C241.413 87.794 247.856 87.1378 250.766 87.123C253.677 87.1025 259.591 86.8326 263.907 86.5138C270.686 86.0248 271.86 85.7351 272.539 84.4003C273.29 82.9168 275.512 82.6104 281.419 83.1702C282.16 83.2422 286.425 82.6339 290.896 81.8162C296.238 80.8453 298.035 80.5838 298.118 81.055C298.15 81.2321 297.939 81.5125 297.583 81.8976C296.791 82.7541 295.745 83.5755 295.255 83.7177C295.048 83.7787 294.959 83.8348 294.968 83.8853C295.031 84.2471 300.141 84.3239 302.939 83.9217C304.954 83.6318 305.731 83.3049 305.628 82.7158C305.609 82.6079 305.56 82.4913 305.484 82.3645C305.415 82.2507 305.367 82.1456 305.35 82.0469C305.2 81.1967 307.326 80.817 318.24 79.4011C320.131 79.1565 321.005 79.356 321.074 79.7503C321.188 80.3962 319.145 81.5649 315.883 82.1616C312.901 82.7034 311.896 83.2297 312.06 84.1601C312.351 85.809 316.374 85.7311 331.269 83.7762C337.84 82.9133 343.555 82.348 343.979 82.5132C344.398 82.6844 347.833 82.417 351.613 81.9212C357.632 81.136 360.297 81.2014 360.472 82.1976C360.497 82.3356 360.473 82.4914 360.404 82.6654C360.395 82.688 360.393 82.7099 360.396 82.731C360.461 83.0997 362.423 83.2517 364.936 83.0707C367.595 82.8818 370.386 83.0717 371.134 83.5022C371.88 83.9275 376.437 83.9313 381.258 83.5077C391.334 82.6184 396.113 82.5645 396.259 83.3462C396.311 83.646 399.125 83.419 402.509 82.841C406.541 82.1487 408.839 82.1245 409.187 82.7667C409.835 83.9635 415.516 83.0551 418.502 81.2788C419.702 80.5583 421.282 80.0878 422.007 80.229C422.51 80.326 422.785 80.5408 422.84 80.8579C423 81.7601 421.392 83.4912 418.258 85.7C416.338 87.0537 414.82 88.478 414.888 88.8656C414.956 89.2507 413.737 89.663 412.178 89.7699C410.825 89.8622 410.201 89.9417 410.223 90.0677C410.239 90.1597 410.6 90.2765 411.273 90.4411C414.223 91.168 427.631 88.1856 429.078 86.4781C430.128 85.2404 430.474 85.2061 431.552 86.2392C432.658 87.3018 442.521 87.4522 446.078 86.4571C446.571 86.3244 446.942 86.5196 447.01 86.9099C447.026 86.9955 447.026 87.0905 447.01 87.1935C446.901 87.9055 444.082 88.6585 438.112 89.5619C433.313 90.2909 429.45 91.1686 429.511 91.5164L429.511 91.5181C430.286 95.003 436.992 95.6006 443.499 92.777C446.786 91.3464 448.718 91.0018 448.841 91.6982C448.894 91.9983 448.611 92.4915 447.956 93.1743C447.491 93.6573 447.235 93.9845 447.282 94.2508C447.356 94.6746 448.198 94.9443 450.186 95.4431C452.213 95.9517 456.129 95.9568 459.321 95.4605C462.394 94.9773 465.356 94.8175 465.905 95.1045C466.451 95.3919 470.164 95.0356 474.154 94.316C482.241 92.8634 483.72 92.8159 485.762 93.9853C486.539 94.4293 488.707 94.6653 490.581 94.5027C493.055 94.2919 494.411 94.5742 494.533 95.2683C494.599 95.6405 494.31 96.1312 493.648 96.7278C492.718 97.5714 491.616 97.5925 489.431 96.8053C486.939 95.91 485.727 96.1129 485.87 96.9191C485.986 97.5778 487.006 98.6392 488.97 99.8336C490.949 101.037 492.562 102.474 492.674 103.109C492.679 103.138 492.681 103.165 492.68 103.19C492.678 103.225 492.681 103.26 492.687 103.296C492.787 103.864 493.857 104.532 495.177 104.823C496.575 105.133 499.617 106.007 501.939 106.764C504.257 107.52 506.693 108.068 507.352 107.979C508.009 107.895 509.548 108.586 510.772 109.51Z" clip-rule="evenodd" fill="#FFCD00" fill-opacity="1.000000" fill-rule="evenodd"/>
	</g>
	<path d="M431.96 120.61C431.18 120.29 428.95 120.06 427.01 120.09C424.69 120.11 423.98 120.33 424.91 120.7C425.7 121.01 427.92 121.25 429.86 121.22C432.18 121.19 432.9 120.98 431.96 120.61Z" fill="#FFCD00" fill-opacity="1.000000" fill-rule="evenodd"/>
	<path d="M489.26 88.78C486.22 89.8 485.81 90.17 486.92 90.92C487.66 91.42 490.01 91.66 492.14 91.44C495.17 91.12 496.02 90.73 496.05 89.6C496.11 87.61 493.63 87.32 489.26 88.78Z" fill="#FFCD00" fill-opacity="1.000000" fill-rule="evenodd"/>
	<path d="M461.85 122.82C459.98 122.95 459.25 123.1 460.23 123.15C461.21 123.2 462.44 123.53 462.96 123.88C463.49 124.23 464.9 124.34 466.09 124.11C469.36 123.49 466.15 122.52 461.85 122.82Z" fill="#FFCD00" fill-opacity="1.000000" fill-rule="evenodd"/>
	<path d="M504 102.09C504.34 102.32 505.08 102.22 505.65 101.87C506.29 101.47 506.05 101.3 505.04 101.44C504.14 101.56 503.66 101.85 504 102.09Z" fill="#FFCD00" fill-opacity="1.000000" fill-rule="evenodd"/>
	<path d="M479.4 123.3C476.04 123.47 475.81 123.59 477.38 124.4C478.35 124.9 480.49 125.09 482.11 124.82C486.12 124.15 484.18 123.06 479.4 123.3Z" fill="#FFCD00" fill-opacity="1.000000" fill-rule="evenodd"/>
	<path d="M488.56 116.64C488.14 116.72 487.94 117.54 488.11 118.49C488.4 120.13 490.19 120.51 491.16 119.14C491.69 118.38 489.68 116.45 488.56 116.64Z" fill="#FFCD00" fill-opacity="1.000000" fill-rule="evenodd"/>
	<path d="M471.15 115.3C470 115.5 469.13 116.05 469.21 116.51C469.38 117.45 473.71 117.97 474.31 117.12C475.08 116.01 473.21 114.94 471.15 115.3Z" fill="#FFCD00" fill-opacity="1.000000" fill-rule="evenodd"/>
	<path d="M447.59 121.31C445.37 121.29 443.61 121.57 443.67 121.93C443.84 122.85 445.65 123.1 450.57 122.87C456 122.63 453.6 121.38 447.59 121.31Z" fill="#FFCD00" fill-opacity="1.000000" fill-rule="evenodd"/>
	<path d="M441.82 121.43C441.04 121.16 439.49 120.81 438.38 120.68C437.26 120.54 436.41 120.8 436.49 121.24C436.64 122.08 439.68 122.6 441.95 122.17C443.09 121.96 443.08 121.87 441.82 121.43Z" fill="#FFCD00" fill-opacity="1.000000" fill-rule="evenodd"/>
	<path d="M509.16 97.54C508.2 98.4 509.44 100.33 511.16 100.67C512.71 100.97 514.01 100.11 513.8 98.92C513.61 97.83 510.03 96.77 509.16 97.54Z" fill="#FFCD00" fill-opacity="1.000000" fill-rule="evenodd"/>
</svg>
